<svg version="1.1" id="Layer_1" xmlns="http://www.w3.org/2000/svg" xmlns:xlink="http://www.w3.org/1999/xlink" x="0px" y="0px"
	 width="100%" viewBox="0 0 100 100" enable-background="new 0 0 100 100" xml:space="preserve">
<path fill="#060606" opacity="1.000000" stroke="none" 
	d="
M63.281067,24.281029 
	C66.592880,20.977489 69.558846,17.819725 72.739204,14.895103 
	C77.380493,10.627036 81.706047,11.045131 86.590652,15.999500 
	C91.150192,20.624168 91.497192,25.044886 87.168335,29.446697 
	C76.089676,40.712040 65.385910,52.442589 53.423519,62.693245 
	C48.850952,66.611511 41.271652,67.047897 35.001755,68.860710 
	C34.748829,68.933830 33.183884,66.687065 33.389011,65.784554 
	C35.518387,56.416016 38.116413,47.474720 46.347641,40.985069 
	C52.443684,36.178837 57.507439,30.063295 63.281067,24.281029 
M78.485085,33.040565 
	C78.693428,32.142815 79.386848,30.887938 79.031464,30.405216 
	C76.709175,27.250860 74.159775,24.263714 72.361809,22.054153 
	C61.717751,32.534672 52.321362,41.786686 42.768539,51.192730 
	C45.546467,53.924606 48.485291,56.814713 51.837875,60.111721 
	C60.572479,51.242638 69.286407,42.394547 78.485085,33.040565 
M38.825161,60.338253 
	C38.556412,61.480194 38.287663,62.622131 37.826752,64.580605 
	C41.575977,63.504440 44.440540,62.682205 47.354385,61.845825 
	C44.942074,59.371376 42.830318,57.205231 40.441738,54.755123 
	C39.894821,56.534267 39.431870,58.040272 38.825161,60.338253 
z"/>
<path fill="#0F0F0F" opacity="1.000000" stroke="none" 
	d="
M60.998516,90.026772 
	C48.175892,90.026756 35.852787,90.052223 23.529854,90.017586 
	C15.586658,89.995262 11.958391,86.370537 11.949132,78.493065 
	C11.930342,62.506451 11.918550,46.519741 11.954956,30.533190 
	C11.971306,23.353777 15.420782,19.931555 22.645908,19.844313 
	C27.308006,19.788017 31.973246,19.757570 36.632927,19.877230 
	C38.043701,19.913458 39.440594,20.490250 40.843849,20.819441 
	C40.841293,21.331041 40.838737,21.842640 40.836182,22.354239 
	C39.554482,22.649332 38.277828,23.170242 36.990181,23.198992 
	C32.329712,23.303057 27.661268,23.116673 23.003916,23.276030 
	C17.712700,23.457075 15.784396,25.377909 15.759728,30.621630 
	C15.683740,46.774433 15.680161,62.928066 15.759815,79.080833 
	C15.784766,84.140579 17.698769,86.015762 22.669523,86.031242 
	C40.154732,86.085686 57.640285,86.082977 75.125534,86.036194 
	C80.085556,86.022926 82.020142,84.087929 82.113602,79.198296 
	C82.199509,74.703682 82.039780,70.203117 82.185326,65.711563 
	C82.237602,64.098534 82.864670,62.504120 83.309082,60.551132 
	C84.474937,61.194065 85.241829,61.420063 85.241638,61.645401 
	C85.235168,69.165916 85.790703,76.767708 84.842110,84.175529 
	C84.295609,88.443283 79.797745,89.963730 75.486145,90.013634 
	C70.824036,90.067596 66.160835,90.026436 60.998516,90.026772 
z"/>
<path fill="#F9F9F9" opacity="1.000000" stroke="none" 
	d="
M78.242706,33.293510 
	C69.286407,42.394547 60.572479,51.242638 51.837875,60.111721 
	C48.485291,56.814713 45.546467,53.924606 42.768539,51.192730 
	C52.321362,41.786686 61.717751,32.534672 72.361809,22.054153 
	C74.159775,24.263714 76.709175,27.250860 79.031464,30.405216 
	C79.386848,30.887938 78.693428,32.142815 78.242706,33.293510 
z"/>
</svg>